<?xml version="1.0"?><svg width="470" height="470" xmlns="http://www.w3.org/2000/svg" xmlns:xlink="http://www.w3.org/1999/xlink">
 <title>Modern Compass without needle</title>
 <defs>
  <filter id="filter7084">
   <feGaussianBlur stdDeviation="2.814122" id="feGaussianBlur7086"/>
  </filter>
  <filter id="filter7483">
   <feGaussianBlur stdDeviation="2.753185" id="feGaussianBlur7485"/>
  </filter>
  <filter id="filter7941">
   <feGaussianBlur stdDeviation="1.988834" id="feGaussianBlur7943"/>
  </filter>
  <linearGradient id="linearGradient9625">
   <stop offset="0" id="stop9627" stop-color="#ffffff"/>
   <stop offset="1" id="stop9629" stop-opacity="0" stop-color="#ffffff"/>
  </linearGradient>
  <linearGradient id="linearGradient9148">
   <stop id="stop9150" offset="0" stop-opacity="0.680851" stop-color="#020202"/>
   <stop id="stop9152" offset="1" stop-opacity="0" stop-color="#ffffff"/>
  </linearGradient>
  <linearGradient id="linearGradient8753">
   <stop offset="0" id="stop8755" stop-color="#ffffff"/>
   <stop offset="1" id="stop8757" stop-opacity="0" stop-color="#ffffff"/>
  </linearGradient>
  <linearGradient id="linearGradient7029">
   <stop offset="0" id="stop7031" stop-color="#414141"/>
   <stop offset="1" id="stop7033" stop-color="#f3f3f3"/>
  </linearGradient>
  <linearGradient xlink:href="#linearGradient7029" id="linearGradient9749" x1="0.096376" y1="0.107316" x2="0.861907" y2="0.880041"/>
  <linearGradient xlink:href="#linearGradient7029" id="linearGradient9751" x1="0.782919" y1="0.853537" x2="0.165549" y2="0.164608"/>
  <radialGradient xlink:href="#linearGradient8753" id="radialGradient9753" gradientUnits="userSpaceOnUse" gradientTransform="matrix(0.999616, 0.0331517, -0.0128232, 0.554044, 1.06414, 54.4135)" cx="-89.930092" cy="85.675156" fx="-89.930092" fy="85.675156" r="91.071426"/>
  <linearGradient xlink:href="#linearGradient9625" id="linearGradient2521" x1="0.194563" y1="-0.119558" x2="0.773504" y2="0.887222"/>
  <radialGradient xlink:href="#linearGradient9148" id="svg_1" gradientUnits="userSpaceOnUse" gradientTransform="matrix(0.999616, 0.0331517, -0.0128232, 0.554044, 1.06414, 54.4135)" cx="-92.751411" cy="69.905266" fx="-92.751411" fy="69.905266" r="91.071426"/>
 </defs>
 <metadata id="metadata4759">image/svg+xmlModern Compass RoseAug 2007Rob AntonishenModern Compass Rosecompass rose mapping cartography</metadata>
 <g>
  <title>Layer 1</title>
  <g id="layer1">
   <path id="path9144" d="m127.128906,432.070374a152.608139,95.764778 0 1 1 305.216309,-308.199181a152.608139,95.764778 0 1 1 -305.216309,308.199181z" stroke-width="0.787032px" fill-rule="evenodd" fill="url(#svg_1)" opacity="0.6"/>
   <path d="m391.742584,228.301697c0,89.791931 -72.874573,162.666504 -162.666489,162.666504c-89.791885,0 -162.666473,-72.874573 -162.666473,-162.666504c0,-89.791901 72.874588,-162.666473 162.666473,-162.666473c89.791916,0 162.666489,72.874573 162.666489,162.666473z" id="path9156" stroke-width="1px" stroke="#000000" fill-rule="evenodd" fill="none" opacity="0.2"/>
   <path id="path9160" d="m229.076096,65.635223l0,11.291389" stroke-width="1px" stroke="#000000" fill-rule="evenodd" fill="none" opacity="0.2"/>
   <path d="m229.076096,378.573669l0,11.291382" id="path9162" stroke-width="1px" stroke="#000000" fill-rule="evenodd" fill="none" opacity="0.2"/>
   <path id="path9166" d="m271.034546,71.159149l-2.922424,10.906654" stroke-width="1px" stroke="#000000" fill-rule="evenodd" fill="none" opacity="0.2"/>
   <path d="m190.040115,373.434479l-2.92244,10.906647" id="path9168" stroke-width="1px" stroke="#000000" fill-rule="evenodd" fill="none" opacity="0.2"/>
   <path id="path9172" d="m310.133575,87.354523l-5.645691,9.77861" stroke-width="1px" stroke="#000000" fill-rule="evenodd" fill="none" opacity="0.2"/>
   <path d="m153.664368,358.367157l-5.645706,9.778656" id="path9174" stroke-width="1px" stroke="#000000" fill-rule="evenodd" fill="none" opacity="0.2"/>
   <path id="path9178" d="m343.708649,113.117599l-7.984192,7.984207" stroke-width="1px" stroke="#000000" fill-rule="evenodd" fill="none" opacity="0.2"/>
   <path d="m122.427757,334.398499l-7.9842,7.984222" id="path9180" stroke-width="1px" stroke="#000000" fill-rule="evenodd" fill="none" opacity="0.2"/>
   <path id="path9184" d="m369.47171,146.692688l-9.778595,5.645691" stroke-width="1px" stroke="#000000" fill-rule="evenodd" fill="none" opacity="0.2"/>
   <path d="m98.459091,303.161896l-9.778641,5.645721" id="path9186" stroke-width="1px" stroke="#000000" fill-rule="evenodd" fill="none" opacity="0.2"/>
   <path id="path9190" d="m385.667084,185.791702l-10.906647,2.922424" stroke-width="1px" stroke="#000000" fill-rule="evenodd" fill="none" opacity="0.2"/>
   <path d="m83.391777,266.786163l-10.906639,2.922394" id="path9192" stroke-width="1px" stroke="#000000" fill-rule="evenodd" fill="none" opacity="0.2"/>
   <path id="path9196" d="m391.19101,227.750137l-11.291382,0" stroke-width="1px" stroke="#000000" fill-rule="evenodd" fill="none" opacity="0.2"/>
   <path d="m78.252579,227.750137l-11.291382,0" id="path9198" stroke-width="1px" stroke="#000000" fill-rule="evenodd" fill="none" opacity="0.2"/>
   <path id="path9202" d="m385.667084,269.708557l-10.906647,-2.922394" stroke-width="1px" stroke="#000000" fill-rule="evenodd" fill="none" opacity="0.2"/>
   <path d="m83.391777,188.714127l-10.906639,-2.922424" id="path9204" stroke-width="1px" stroke="#000000" fill-rule="evenodd" fill="none" opacity="0.2"/>
   <path id="path9208" d="m369.47171,308.807617l-9.778595,-5.645691" stroke-width="1px" stroke="#000000" fill-rule="evenodd" fill="none" opacity="0.2"/>
   <path d="m98.459091,152.338379l-9.778641,-5.645691" id="path9210" stroke-width="1px" stroke="#000000" fill-rule="evenodd" fill="none" opacity="0.2"/>
   <path id="path9214" d="m343.708649,342.38269l-7.984192,-7.984192" stroke-width="1px" stroke="#000000" fill-rule="evenodd" fill="none" opacity="0.2"/>
   <path d="m122.427757,121.101807l-7.9842,-7.98423" id="path9216" stroke-width="1px" stroke="#000000" fill-rule="evenodd" fill="none" opacity="0.2"/>
   <path id="path9220" d="m310.133545,368.145782l-5.645691,-9.778625" stroke-width="1px" stroke="#000000" fill-rule="evenodd" fill="none" opacity="0.2"/>
   <path d="m153.664337,97.13311l-5.645706,-9.778618" id="path9222" stroke-width="1px" stroke="#000000" fill-rule="evenodd" fill="none" opacity="0.2"/>
   <path d="m271.034546,384.341125l-2.922424,-10.906647" id="path9226" stroke-width="1px" stroke="#000000" fill-rule="evenodd" fill="none" opacity="0.2"/>
   <path id="path9228" d="m190.040115,82.065804l-2.92244,-10.906654" stroke-width="1px" stroke="#000000" fill-rule="evenodd" fill="none" opacity="0.2"/>
   <path id="path7088" d="m229.377197,17.751181c-114.272446,0 -207.012386,93.428972 -207.012386,208.550394c0,115.12149 92.739925,208.550476 207.012386,208.550415c114.272461,0 207.01239,-93.428925 207.01239,-208.550415c0,-115.121437 -92.739929,-208.550394 -207.01239,-208.550394z" filter="url(#filter7483)" stroke-miterlimit="4" stroke-width="5.237512" stroke="#ffffff" fill-rule="evenodd" fill="none"/>
   <path id="path7066" d="m227.081253,13.09504c-118.07196,0 -213.996443,95.573737 -213.996443,213.213996c0,117.640213 95.92449,213.214005 213.996443,213.213974c118.071976,0 213.996445,-95.573761 213.996445,-213.213974c0,-117.640244 -95.924469,-213.213996 -213.996445,-213.213996z" filter="url(#filter7084)" stroke-miterlimit="4" stroke-width="4.340667" stroke="#000000" fill-rule="evenodd" fill="none"/>
   <path d="m227.081253,17.76606c-115.539803,0 -209.308292,93.425621 -209.308292,208.542961c0,115.117371 93.768497,208.542999 209.308292,208.542969c115.53981,0 209.308304,-93.425598 209.308304,-208.542969c0,-115.11734 -93.768494,-208.542961 -209.308304,-208.542961z" id="path7046" stroke-miterlimit="4" stroke-width="4.340667" stroke="url(#linearGradient9749)" fill-rule="evenodd" fill="none"/>
   <path id="rect5214" d="m219.701111,90.852364c-2.527405,0.255157 -4.5,2.40313 -4.5,5l0,2.03125c-14.892197,1.361786 -29.065323,5.252968 -42.0625,11.25l-1,-1.75c-1.38501,-2.39888 -4.476105,-3.197502 -6.875,-1.8125l-11.875,6.84375c-2.398895,1.38501 -3.228745,4.444847 -1.84375,6.84375l1.03125,1.78125c-11.906723,8.447517 -22.337677,18.871513 -30.781242,30.781242l-1.78125,-1.03125c-2.398895,-1.384995 -5.427505,-0.55513 -6.812508,1.84375l-6.874992,11.875c-1.385002,2.398895 -0.555145,5.45874 1.843742,6.84375l1.750008,1c-6.001167,13.006134 -9.890778,27.190277 -11.25,42.09375l-2.03125,0c-2.769997,0 -5,2.230011 -5,5l0,13.718735c0,2.769989 2.230003,5 5,5l2.03125,0c1.361794,14.892212 5.252968,29.065353 11.25,42.062515l-1.781258,1.03125c-2.398888,1.38501 -3.166245,4.444885 -1.78125,6.843781l6.84375,11.875c1.38501,2.398865 4.413612,3.197479 6.812508,1.812469l1.78125,-1.03125c8.452019,11.921631 18.890846,22.360504 30.812492,30.812531l-1.03125,1.78125c-1.38501,2.398865 -0.586395,5.42746 1.8125,6.812469l11.875,6.875c2.398895,1.38501 5.45874,0.586426 6.84375,-1.8125l1.03125,-1.781219c12.997177,5.997009 27.170303,9.888184 42.0625,11.25l0,2.062469c0,2.769989 2.229996,5 5,5l13.75,0c2.769989,0 4.96875,-2.230011 4.96875,-5l0,-2.062469c14.893707,-1.358368 29.063354,-5.255524 42.0625,-11.25l1.03125,1.781219c1.384979,2.398895 4.444855,3.19751 6.84375,1.8125l11.90625,-6.875c2.398895,-1.38501 3.16626,-4.413574 1.78125,-6.812469l-1.03125,-1.78125c11.93045,-8.454712 22.386719,-18.88382 30.84375,-30.812531l1.78125,1.03125c2.398895,1.38501 5.427521,0.586426 6.8125,-1.812469l6.875,-11.875c1.38501,-2.398926 0.555145,-5.458771 -1.84375,-6.843781l-1.75,-1.03125c5.99704,-12.997162 9.888214,-27.170303 11.25,-42.062515l2.03125,0c2.769989,0 5,-2.22998 5,-5l0,-13.718735c0,-2.77002 -2.230011,-5 -5,-5l-2.03125,0c-1.358337,-14.893723 -5.255524,-29.06337 -11.25,-42.0625l1.78125,-1.03125c2.398895,-1.384995 3.166229,-4.44487 1.78125,-6.84375l-6.84375,-11.875c-1.38501,-2.39888 -4.444855,-3.228745 -6.84375,-1.84375l-1.78125,1.03125c-8.446716,-11.91066 -18.870575,-22.334518 -30.78125,-30.781242l1.03125,-1.78125c1.38501,-2.39888 0.555145,-5.458763 -1.84375,-6.84375l-11.84375,-6.84375c-2.398895,-1.384987 -5.48999,-0.58638 -6.875,1.8125l-1,1.75c-12.997162,-5.997032 -27.170288,-9.888222 -42.0625,-11.25l0,-2.03125c0,-2.769981 -2.261261,-5 -5.03125,-5l-13.71875,0c-0.173126,0.000023 -0.331512,-0.017021 -0.5,0zm7.375,27.53125c59.565308,0 107.90625,48.340935 107.90625,107.906242c0,59.565338 -48.340942,107.906281 -107.90625,107.906281c-59.565308,-0.000031 -107.90625,-48.340942 -107.90625,-107.906281c-0.000008,-59.565308 48.340942,-107.906242 107.90625,-107.906242z" stroke-dashoffset="0" stroke-miterlimit="4" marker-end="none" marker-mid="none" marker-start="none" stroke-width="3" fill-rule="evenodd" fill="#000000"/>
   <path id="path6020" d="m389.742584,226.301697c0,89.791931 -72.874573,162.666504 -162.666489,162.666504c-89.791885,0 -162.666473,-72.874573 -162.666473,-162.666504c0,-89.791901 72.874588,-162.666477 162.666473,-162.666477c89.791916,0 162.666489,72.874577 162.666489,162.666477z" stroke-width="1px" stroke="#000000" fill-rule="evenodd" fill="none"/>
   <path d="m227.076096,63.635231l0,11.291382" id="path6420" stroke-width="1px" stroke="#000000" fill-rule="evenodd" fill="none"/>
   <path id="path6422" d="m227.076096,376.573669l0,11.291382" stroke-width="1px" stroke="#000000" fill-rule="evenodd" fill="none"/>
   <path d="m269.034546,69.159149l-2.922424,10.906654" id="path6426" stroke-width="1px" stroke="#000000" fill-rule="evenodd" fill="none"/>
   <path id="path6428" d="m188.040115,371.434479l-2.92244,10.906647" stroke-width="1px" stroke="#000000" fill-rule="evenodd" fill="none"/>
   <path d="m308.133575,85.354523l-5.645691,9.77861" id="path6432" stroke-width="1px" stroke="#000000" fill-rule="evenodd" fill="none"/>
   <path id="path6434" d="m151.664368,356.367157l-5.645706,9.778656" stroke-width="1px" stroke="#000000" fill-rule="evenodd" fill="none"/>
   <path d="m341.708649,111.117599l-7.984192,7.984207" id="path6438" stroke-width="1px" stroke="#000000" fill-rule="evenodd" fill="none"/>
   <path id="path6440" d="m120.427757,332.398499l-7.9842,7.984222" stroke-width="1px" stroke="#000000" fill-rule="evenodd" fill="none"/>
   <path d="m367.47171,144.692688l-9.778595,5.645691" id="path6444" stroke-width="1px" stroke="#000000" fill-rule="evenodd" fill="none"/>
   <path id="path6446" d="m96.459091,301.161896l-9.778641,5.645721" stroke-width="1px" stroke="#000000" fill-rule="evenodd" fill="none"/>
   <path d="m383.667084,183.791702l-10.906647,2.922424" id="path6450" stroke-width="1px" stroke="#000000" fill-rule="evenodd" fill="none"/>
   <path id="path6452" d="m81.391777,264.786163l-10.906639,2.922394" stroke-width="1px" stroke="#000000" fill-rule="evenodd" fill="none"/>
   <path d="m389.19101,225.750137l-11.291382,0" id="path6456" stroke-width="1px" stroke="#000000" fill-rule="evenodd" fill="none"/>
   <path id="path6458" d="m76.252579,225.750137l-11.291382,0" stroke-width="1px" stroke="#000000" fill-rule="evenodd" fill="none"/>
   <path d="m383.667084,267.708557l-10.906647,-2.922394" id="path6462" stroke-width="1px" stroke="#000000" fill-rule="evenodd" fill="none"/>
   <path id="path6464" d="m81.391777,186.714127l-10.906639,-2.922424" stroke-width="1px" stroke="#000000" fill-rule="evenodd" fill="none"/>
   <path d="m367.47171,306.807617l-9.778595,-5.645691" id="path6468" stroke-width="1px" stroke="#000000" fill-rule="evenodd" fill="none"/>
   <path id="path6470" d="m96.459091,150.338379l-9.778641,-5.645691" stroke-width="1px" stroke="#000000" fill-rule="evenodd" fill="none"/>
   <path d="m341.708649,340.38269l-7.984192,-7.984192" id="path6474" stroke-width="1px" stroke="#000000" fill-rule="evenodd" fill="none"/>
   <path id="path6476" d="m120.427757,119.101807l-7.9842,-7.98423" stroke-width="1px" stroke="#000000" fill-rule="evenodd" fill="none"/>
   <path d="m308.133545,366.145782l-5.645691,-9.778625" id="path6480" stroke-width="1px" stroke="#000000" fill-rule="evenodd" fill="none"/>
   <path id="path6482" d="m151.664337,95.13311l-5.645706,-9.778618" stroke-width="1px" stroke="#000000" fill-rule="evenodd" fill="none"/>
   <path id="path6404" d="m269.034546,382.341125l-2.922424,-10.906647" stroke-width="1px" stroke="#000000" fill-rule="evenodd" fill="none"/>
   <path d="m188.040115,80.065804l-2.92244,-10.906654" id="path6412" stroke-width="1px" stroke="#000000" fill-rule="evenodd" fill="none"/>
   <path id="flowRoot6547" d="m220.625961,98.99379l4.145844,0l5.235321,10.678368l0,-10.678368l3.51915,0l0,15.569168l-4.145844,0l-5.235321,-10.678391l0,10.678391l-3.51915,0l0,-15.569168z" stroke-width="1px" fill="#ff0000"/>
   <path id="flowRoot6563" d="m231.810089,338.433655l0,3.295258c-0.790619,-0.382355 -1.561935,-0.670868 -2.31395,-0.86554c-0.752045,-0.194641 -1.462311,-0.291962 -2.130768,-0.291992c-0.887024,0.000031 -1.542648,0.132111 -1.966858,0.396271c-0.42424,0.264191 -0.636353,0.674377 -0.636353,1.23053c0,0.417145 0.143005,0.742126 0.429047,0.975037c0.286026,0.23288 0.805054,0.43277 1.557098,0.599609l1.581207,0.344116c1.600479,0.347626 2.738174,0.875977 3.413086,1.585083c0.674896,0.709106 1.01236,1.717163 1.01236,3.024139c0,1.717163 -0.47084,2.994598 -1.412491,3.832336c-0.94165,0.837738 -2.379837,1.256592 -4.31456,1.256592c-0.912735,0 -1.828674,-0.093872 -2.747818,-0.281555c-0.919174,-0.187714 -1.838303,-0.46579 -2.757477,-0.834259l0,-3.38913c0.919174,0.528351 1.807785,0.926361 2.665878,1.194031c0.858093,0.267639 1.685654,0.401459 2.482681,0.401459c0.809891,0 1.430161,-0.145996 1.860809,-0.437958c0.430649,-0.291992 0.645966,-0.709137 0.645996,-1.251373c-0.000031,-0.486664 -0.146255,-0.862061 -0.438705,-1.126251c-0.292465,-0.26416 -0.875763,-0.500519 -1.749924,-0.709106l-1.436584,-0.344147c-1.439804,-0.333679 -2.49234,-0.865509 -3.157593,-1.59549c-0.665253,-0.72995 -0.997894,-1.713684 -0.997894,-2.951141c0,-1.550293 0.462799,-2.742584 1.388382,-3.576843c0.925583,-0.834259 2.256104,-1.251373 3.991577,-1.251373c0.790588,0 1.603683,0.064331 2.439301,0.192932c0.835571,0.128601 1.700104,0.321533 2.593552,0.578766l0,0z" stroke-width="1px" fill="#cccccc"/>
   <path id="flowRoot6571" d="m340.567871,218.517136l10.017517,0l0,3.034576l-6.305542,0l0,2.899017l5.929535,0l0,3.034576l-5.929535,0l0,3.566422l6.51767,0l0,3.034576l-10.229645,0l0,-15.569168z" stroke-width="1px" fill="#cccccc"/>
   <path id="flowRoot6579" d="m96.952972,218.517136l3.557709,0l2.487495,11.314499l2.468231,-11.314499l3.576996,0l2.468216,11.314499l2.487511,-11.314499l3.528778,0l-3.393799,15.569168l-4.280823,0l-2.612846,-11.835907l-2.583908,11.835907l-4.28083,0l-3.422729,-15.569168z" stroke-width="1px" fill="#cccccc"/>
   <path d="m303.668732,149.501999l12.167664,-12.167679" id="path6632" stroke-width="1px" stroke="#ffffff" fill-rule="evenodd" fill="none"/>
   <path d="m304.375824,302.394318l12.167664,12.167694" id="path6634" stroke-width="1px" stroke="#ffffff" fill-rule="evenodd" fill="none"/>
   <path d="m151.483505,303.10144l-12.167679,12.167664" id="path6636" stroke-width="1px" stroke="#ffffff" fill-rule="evenodd" fill="none"/>
   <path d="m150.776398,150.209106l-12.167664,-12.167679" id="path6638" stroke-width="1px" stroke="#ffffff" fill-rule="evenodd" fill="none"/>
   <path d="m227.081253,13.09504c-118.07196,0 -213.996443,95.573737 -213.996443,213.213996c0,117.640213 95.92449,213.214005 213.996443,213.213974c118.071976,0 213.996445,-95.573761 213.996445,-213.213974c0,-117.640244 -95.924469,-213.213996 -213.996445,-213.213996z" id="path7054" stroke-miterlimit="4" stroke-width="4.340667" stroke="url(#linearGradient9751)" fill-rule="evenodd" fill="none"/>0240o
   <path id="path7544" d="m239.607361,29.55171c-3.029083,-0.27453 -4.950134,4.318529 -5.28125,5.062498c-3.204437,-8.136698 -16.952957,-5.947939 -17.5,2.812511c-1.008408,6.67638 -1.426895,17.23912 6.6875,19.562481c6.133408,1.85638 12.093536,-3.135941 12.03125,-9.375c0.635284,-1.951241 -0.254547,-7.027729 0.4375,-7.1875c3.753876,5.053329 11.443726,-0.201141 9.75,-5.718742c-0.415039,-2.899258 -3.064087,-5.524788 -6.125,-5.156248zm-13.5625,8.50001c0.749924,3.34898 0.758835,7.26236 0,10.531231c-0.7005,-3.304031 -0.811127,-7.404331 0,-10.531231zm-194.25,174.437477c-6.124191,-0.473129 -9.592932,5.62265 -9.4375,11.0625c3.29554,0.669052 11.165749,-0.314789 5.75,3.21875c-3.813452,3.2621 -6.01004,7.99707 -6.15625,13.000031c6.875,0 13.75,0 20.625,0c0.965248,-5.536179 -0.07198,-10.844467 -4.9375,-9.562531c2.34005,-1.96521 4.44405,-4.750687 4.78125,-7.96875c3.666298,-0.077179 8.568008,-1.099243 4.950569,3.249222c-2.099651,4.452438 -2.716621,9.41748 -3.325569,14.282059c4.495358,-0.229507 11.138168,1.85614 9.96875,-4.59375c0.567657,-4.804459 2.484818,-10.299805 5.53125,-13.593781c-0.959682,6.611786 -0.542362,17.035446 7.75,18.437531c6.066338,1.480606 11.694176,-3.442398 11.71875,-9.5c0.488312,-2.293152 0.015511,-6.615677 0.28125,-7.500031c3.524467,5.338303 11.819382,0.653641 10.3125,-5.15625c-0.273415,-5.804947 -9.06955,-7.486801 -11.03125,-1.78125c-0.591042,4.387619 -2.272232,-2.852219 -5.187492,-2.875c-4.31913,-1.726379 -10.15266,-0.593781 -12.437508,3.75c1.536388,-7.567627 -9.324322,-2.738159 -14,-4.09375c-5.675911,-3.096741 -5.094391,4.901871 -7.125,1.90625c-2.05151,-2.07283 -5.250771,-2.390991 -8.03125,-2.28125zm351.375,0c-8.82135,0.06636 -11.397308,12.949051 -5.125,17.968781c-4.703918,-0.874359 -3.160187,3.041428 -1.8125,5.625c3.76413,6.765121 15.359497,4.699631 17,-2.78125c1.439819,8.567642 15.310638,9.341751 17.5625,0.90625c1.14566,-3.575882 1.216125,-7.798782 0.90625,-11.281281c3.233276,5.307724 11.340607,1.02037 10.15625,-4.625c0.181458,-5.600616 -8.114197,-8.179688 -10.53125,-2.78125c-0.761871,1.481171 -0.615723,3.319153 -1.59375,0.8125c-3.739441,-6.369034 -15.170135,-4.596252 -16.53125,2.84375c-1.295746,-4.449951 -5.411713,-7.188477 -10.03125,-6.6875zm0.875,7.96875c1.575745,0.790054 -0.021484,5.945221 -0.4375,2.25c0.046997,-0.71286 -0.133972,-1.736801 0.4375,-2.25zm-314.8125,0.34375c0.807053,3.017838 1.064713,8.390854 -0.09375,10.625031c-0.700974,-3.297958 -0.820694,-7.40593 0.09375,-10.625031zm-36.59375,0.03125c1.29184,0.934189 -1.644051,3.612106 -0.375,0.6875c0.09597,-0.232071 0.13208,-0.603699 0.375,-0.6875zm369.5,0.21875c0.691711,3.047653 0.847626,7.927551 -0.09375,10.250031c-0.545105,-3.215271 -0.732513,-7.33902 0.09375,-10.250031zm-142.96875,176.156281c-3.380341,-0.37854 -5.443085,4.82196 -5.65625,5.71875c-2.88504,-8.418365 -17.145996,-7.221497 -18.84375,1.0625c-1.678314,-10.024719 -20.279404,-8.790558 -19.5,1.90625c-0.064545,2.443665 2.553207,4.10672 0.15625,6.03125c-3.026001,6.003296 2.110199,13.730194 8.90625,12.9375c4.500656,0.890869 9.69989,-2.260986 10.84375,-5.90625c3.074097,9.015442 18.628998,7.42514 19.21875,-2.375c0.879227,-2.643402 0.243347,-8.149719 0.4375,-9.28125c3.142029,5.639008 12.209167,1.858368 11.03125,-4.28125c-0.168732,-3.307037 -3.214478,-6.224365 -6.59375,-5.8125zm-55.46875,1.09375c-0.920868,3.822693 -5.931396,4.256531 -7.34375,6.65625c-0.112564,4.566071 -1.192566,10.667664 4.59375,6.75c4.082275,-0.677856 -0.802582,11.226715 2.46875,12.78125c8.430679,2.159851 10.154297,-2.38736 8.8125,-10c-0.679657,-5.414093 1.356918,-13.544403 -1,-17.28125c-2.088333,0.666962 -6.685944,-1.366028 -7.53125,1.09375zm21.1875,6.78125c1.631134,1.344147 -1.333008,1.790558 0,0zm19.375,0.375c1.115417,2.898834 1.374695,8.566925 -0.03125,10.9375c-0.986267,-3.336273 -1.05304,-7.695313 0.03125,-10.9375zm-10.375,3.71875c0.067169,3.350311 -1.086975,-0.200531 0,0zm-9.03125,4.90625c2.925247,2.208527 -2.151382,4.987366 0,0z" filter="url(#filter7941)" stroke-width="1px" fill="#ffffff"/>
   <path d="m218.317001,43.2995c0,-4.354099 0.647995,-7.401001 1.944,-9.140598c1.294998,-1.739601 3.268997,-2.609402 5.921005,-2.609402c1.273987,0 2.319992,0.190201 3.138,0.570301c0.817993,0.380199 1.484985,0.875099 2.000992,1.484398c0.516998,0.609402 0.923996,1.25 1.221008,1.921902c0.296997,0.671902 0.535995,1.4557 0.716995,2.351601c0.352997,1.708298 0.528992,3.489498 0.528992,5.3437c0,4.1562 -0.580994,7.197899 -1.742996,9.125c-1.162994,1.927097 -3.164001,2.890598 -6.005005,2.890598c-1.592987,0 -2.87999,-0.307301 -3.862,-0.921898c-0.980988,-0.614502 -1.785995,-1.515602 -2.413986,-2.703102c-0.457001,-0.8437 -0.812012,-1.997398 -1.06601,-3.460899c-0.253998,-1.4636 -0.380997,-3.0807 -0.380997,-4.851601l0,0zm5.216995,0.015602c0,2.916698 0.212997,4.908897 0.639999,5.976597c0.42601,1.067703 1.042999,1.601601 1.852997,1.601601c0.534012,0 0.996002,-0.226601 1.388,-0.679699c0.392014,-0.453098 0.680008,-1.1693 0.865005,-2.148499c0.184998,-0.979103 0.278,-2.505203 0.278,-4.578102c0,-3.041599 -0.212997,-5.085899 -0.638992,-6.132801c-0.42601,-1.046898 -1.06601,-1.570297 -1.917999,-1.570297c-0.87001,0 -1.498001,0.533798 -1.88501,1.601601c-0.388,1.067699 -0.582001,3.044197 -0.582001,5.9296l0,0zm20.30101,-7.312401c0,1.229099 -0.362,2.2812 -1.085007,3.1562c-0.723007,0.875 -1.597,1.3125 -2.621002,1.3125c-1.015991,0 -1.886002,-0.4375 -2.608994,-1.3125c-0.723007,-0.875 -1.085007,-1.927101 -1.085007,-3.1562c0,-1.239601 0.362,-2.2943 1.085007,-3.164101c0.722992,-0.869801 1.593002,-1.304701 2.608994,-1.304701c1.024002,0 1.897995,0.4349 2.621002,1.304701c0.723007,0.869801 1.085007,1.9245 1.085007,3.164101l0,0zm-2.402008,-0.015701c0,-0.4375 -0.126999,-0.8125 -0.380997,-1.125c-0.253998,-0.3125 -0.561996,-0.4687 -0.923004,-0.4687c-0.362,0 -0.671997,0.1562 -0.929993,0.4687c-0.258011,0.3125 -0.387009,0.6875 -0.387009,1.125c0,0.4375 0.128998,0.809902 0.387009,1.117199c0.257996,0.307301 0.567993,0.461002 0.929993,0.461002c0.361008,0 0.669006,-0.153702 0.923004,-0.461002c0.253998,-0.307297 0.380997,-0.679699 0.380997,-1.117199l0,0zm-31.201996,363.204987l0,23.297028l-5.824005,0l0,-15.265015c-0.942993,0.791016 -1.854996,1.432007 -2.735992,1.921997c-0.881012,0.489014 -1.986008,0.958008 -3.315002,1.406006l0,-5.218994c1.959991,-0.697998 3.481995,-1.536011 4.565994,-2.516022c1.084,-0.978973 1.932007,-2.186981 2.544998,-3.625l4.764008,0zm9.75499,10.985016c-0.904999,-0.531006 -1.564987,-1.125 -1.979996,-1.781006c-0.565002,-0.895996 -0.847992,-1.928009 -0.847992,-3.093994c0,-1.916992 0.815002,-3.485016 2.445999,-4.703003c1.272003,-0.937988 2.955002,-1.407013 5.046997,-1.407013c2.770996,0 4.817993,0.584015 6.141998,1.75c1.324997,1.167023 1.987,2.636017 1.987,4.407013c0,1.031006 -0.263992,1.993988 -0.791992,2.890015c-0.396011,0.666992 -1.018005,1.312988 -1.866013,1.937988c1.121002,0.593994 1.958008,1.380005 2.509003,2.359009c0.552002,0.979004 0.826996,2.062988 0.826996,3.25c0,1.145996 -0.237991,2.216003 -0.713989,3.210999c-0.475998,0.994995 -1.059998,1.763 -1.753006,2.304993c-0.692001,0.540985 -1.554993,0.940002 -2.58699,1.195007c-1.032013,0.255005 -2.132004,0.382996 -3.30101,0.382996c-2.195999,0 -3.873001,-0.287018 -5.03299,-0.859009c-1.159012,-0.572998 -2.040009,-1.416992 -2.643005,-2.531982c-0.602997,-1.114014 -0.904999,-2.359009 -0.904999,-3.734009c0,-1.343994 0.28299,-2.481995 0.847992,-3.414001c0.56601,-0.932007 1.438004,-1.653992 2.615997,-2.164001l0,0zm2.587006,-4.5c0,0.790985 0.223999,1.428986 0.671005,1.914001c0.447998,0.484009 1.043991,0.725983 1.789001,0.725983c0.658997,0 1.200989,-0.238983 1.625,-0.717987c0.423996,-0.480011 0.636002,-1.098999 0.636002,-1.859985c0,-0.791016 -0.221008,-1.435028 -0.664001,-1.929016c-0.443008,-0.494995 -1.008011,-0.743011 -1.695999,-0.743011c-0.698013,0 -1.266006,0.243011 -1.70401,0.72702c-0.437988,0.484009 -0.656998,1.112 -0.656998,1.882996l0,0zm-0.311005,9.859009c0,1.010986 0.278,1.835999 0.834,2.47699c0.556,0.640015 1.192001,0.960999 1.908005,0.960999c0.688004,0 1.306,-0.325989 1.852005,-0.97699c0.546997,-0.651001 0.819992,-1.476013 0.819992,-2.476013c0,-1.010986 -0.276001,-1.838989 -0.826996,-2.484985c-0.550995,-0.645996 -1.190002,-0.969025 -1.914993,-0.969025c-0.71701,0 -1.341003,0.313019 -1.874008,0.938019c-0.531998,0.625 -0.798004,1.468994 -0.798004,2.531006l0,0zm13.600006,-4.594025c-0.001007,-4.353973 0.709,-7.401001 2.126999,-9.139984c1.419006,-1.73999 3.578995,-2.610016 6.481995,-2.610016c1.395004,0 2.540009,0.19101 3.435013,0.571014c0.895996,0.380005 1.625992,0.875 2.192001,1.484009c0.564987,0.608978 1.009995,1.25 1.334991,1.921997c0.326004,0.671997 0.587006,1.455994 0.785004,2.35199c0.386002,1.708008 0.580002,3.489014 0.580002,5.343018c0,4.156982 -0.637009,7.197998 -1.908997,9.125c-1.272003,1.926971 -3.463013,2.890991 -6.574005,2.890991c-1.742996,0 -3.152008,-0.307007 -4.227005,-0.921997c-1.07399,-0.615021 -1.955002,-1.516022 -2.64299,-2.703003c-0.5,-0.843994 -0.888,-1.997009 -1.166,-3.460999c-0.278,-1.46402 -0.418015,-3.080994 -0.417007,-4.85202l0,0zm5.710999,0.016022c0,2.916992 0.233002,4.908997 0.699997,5.97699c0.466003,1.067017 1.141998,1.601013 2.028,1.601013c0.585007,0 1.091003,-0.226013 1.520004,-0.680023c0.429001,-0.452972 0.744995,-1.168976 0.947006,-2.14798c0.202988,-0.979004 0.304001,-2.505005 0.304001,-4.578003c0,-3.041992 -0.233002,-5.085999 -0.700012,-6.132996c-0.465988,-1.046997 -1.166,-1.570007 -2.098999,-1.570007c-0.951996,0 -1.639999,0.533997 -2.063995,1.601013c-0.423996,1.067993 -0.636002,3.044983 -0.636002,5.929993l0,0zm22.222992,-7.312012c0,1.229004 -0.395996,2.281006 -1.186981,3.156006c-0.792023,0.875 -1.748016,1.312012 -2.869995,1.312012c-1.112,0 -2.064026,-0.437012 -2.856018,-1.312012c-0.790985,-0.875 -1.186996,-1.927002 -1.186996,-3.156006c0,-1.23999 0.396011,-2.294983 1.186996,-3.165009c0.791992,-0.868988 1.744019,-1.303986 2.856018,-1.303986c1.121979,0 2.077972,0.434998 2.869995,1.303986c0.790985,0.870026 1.186981,1.925018 1.186981,3.165009l0,0zm-2.628998,-0.015991c0,-0.438019 -0.138977,-0.813019 -0.416992,-1.125c-0.278015,-0.313019 -0.61499,-0.468994 -1.010986,-0.468994c-0.396027,0 -0.735016,0.155975 -1.018005,0.468994c-0.28302,0.311981 -0.424011,0.686981 -0.424011,1.125c0,0.436981 0.140991,0.809998 0.424011,1.117004c0.28299,0.306976 0.621979,0.460999 1.018005,0.460999c0.395996,0 0.732971,-0.154022 1.010986,-0.460999c0.278015,-0.307007 0.416992,-0.680023 0.416992,-1.117004l0,0zm115.846008,-171.008011l5.221008,-0.796997c0.136993,0.886002 0.368988,1.511002 0.695984,1.875c0.326019,0.365005 0.726013,0.546997 1.197998,0.546997c0.84201,0 1.5,-0.515991 1.972015,-1.546997c0.343994,-0.759995 0.60199,-2.369995 0.773987,-4.828003c-0.627991,0.781006 -1.272003,1.354004 -1.93399,1.719009c-0.661011,0.363998 -1.425995,0.546997 -2.294006,0.546997c-1.692993,0 -3.121002,-0.729996 -4.286011,-2.188004c-1.163971,-1.457993 -1.745972,-3.302002 -1.745972,-5.530991c0,-1.521011 0.29599,-2.906006 0.888977,-4.156006c0.593018,-1.25 1.408997,-2.195999 2.449005,-2.835999c1.040009,-0.641006 2.346008,-0.960999 3.919006,-0.960999c1.889984,0 3.407013,0.39299 4.549011,1.179001c1.142975,0.787003 2.056,2.037003 2.738983,3.75c0.68399,1.713989 1.024994,3.97699 1.024994,6.789993c0,4.13501 -0.71698,7.164001 -2.151978,9.085007c-1.435028,1.921997 -3.425018,2.882996 -5.968018,2.882996c-1.503998,0 -2.690002,-0.210999 -3.557983,-0.632996c-0.867004,-0.421005 -1.58902,-1.039001 -2.165009,-1.850998c-0.575989,-0.813004 -1.018005,-1.828003 -1.328003,-3.047012l0,0zm9.666992,-10.218994c0,-1.238998 -0.256989,-2.210999 -0.77298,-2.914001c-0.516022,-0.703003 -1.143005,-1.054001 -1.882019,-1.054001c-0.695984,0 -1.273987,0.317001 -1.733002,0.953003c-0.459991,0.634995 -0.690002,1.587997 -0.690002,2.858994c0,1.281006 0.238007,2.26001 0.714996,2.938004c0.47702,0.677002 1.072021,1.014999 1.786011,1.014999c0.739014,0 1.352997,-0.328003 1.843018,-0.983994c0.48999,-0.656006 0.733978,-1.594009 0.733978,-2.813004l0,0zm7.734009,3.813004c0,-4.354004 0.647003,-7.401001 1.940002,-9.141006c1.292999,-1.738998 3.263,-2.608994 5.910004,-2.608994c1.270996,0 2.315002,0.190002 3.131989,0.569992c0.81601,0.380005 1.481995,0.875 1.998016,1.484009c0.514984,0.610001 0.92099,1.25 1.217987,1.921997c0.29599,0.671997 0.533997,1.455994 0.714996,2.352005c0.35199,1.707993 0.528015,3.488998 0.528015,5.343994c0,4.156006 -0.580017,7.197998 -1.740021,9.125c-1.160004,1.927002 -3.15799,2.889999 -5.992981,2.889999c-1.589996,0 -2.875,-0.307007 -3.854004,-0.921997c-0.980011,-0.613998 -1.78302,-1.514999 -2.410004,-2.703003c-0.455994,-0.843002 -0.809998,-1.996994 -1.063995,-3.460999c-0.253021,-1.462997 -0.380005,-3.080002 -0.380005,-4.850998l0,0zm5.207001,0.014999c0,2.916992 0.213013,4.908997 0.638,5.97699c0.425995,1.068008 1.041992,1.602005 1.850006,1.602005c0.53299,0 0.994995,-0.227005 1.385986,-0.679993c0.390015,-0.453003 0.678009,-1.169006 0.863007,-2.149002c0.184998,-0.979004 0.277008,-2.505005 0.277008,-4.578003c0,-3.041 -0.212006,-5.085999 -0.638,-6.132996c-0.425018,-1.046005 -1.063019,-1.570007 -1.914001,-1.570007c-0.868011,0 -1.494995,0.533997 -1.882019,1.602005c-0.385986,1.067001 -0.579987,3.043991 -0.579987,5.929001l0,0zm20.261993,-7.311996c0,1.228989 -0.360992,2.280991 -1.082001,3.155991c-0.721985,0.875 -1.593994,1.313004 -2.617004,1.313004c-1.013977,0 -1.881989,-0.438004 -2.604004,-1.313004c-0.720978,-0.875 -1.082001,-1.927002 -1.082001,-3.155991c0,-1.240005 0.361023,-2.294006 1.082001,-3.164001c0.722015,-0.87001 1.590027,-1.305008 2.604004,-1.305008c1.02301,0 1.89502,0.434998 2.617004,1.305008c0.721008,0.869995 1.082001,1.923996 1.082001,3.164001l0,0zm-2.397003,-0.016006c0,-0.436996 -0.126984,-0.811996 -0.380005,-1.125c-0.253998,-0.311996 -0.560974,-0.468002 -0.921997,-0.468002c-0.360992,0 -0.669983,0.156006 -0.927979,0.468002c-0.258026,0.313004 -0.387024,0.688004 -0.387024,1.125c0,0.438004 0.128998,0.809998 0.387024,1.117004c0.257996,0.307999 0.566986,0.460999 0.927979,0.460999c0.361023,0 0.667999,-0.153 0.921997,-0.460999c0.253021,-0.307007 0.380005,-0.679001 0.380005,-1.117004l0,0zm-376.897591,18.860001l-16.342503,0c0.187302,-1.886002 0.7556,-3.658997 1.7052,-5.320999c0.949501,-1.660995 2.7304,-3.621994 5.342701,-5.882004c1.595901,-1.386002 2.616798,-2.438004 3.0625,-3.156998c0.445801,-0.718002 0.668701,-1.401001 0.668701,-2.046997c0,-0.697998 -0.2206,-1.294006 -0.662003,-1.789001c-0.441299,-0.494003 -0.9963,-0.742004 -1.664997,-0.742004c-0.6954,0 -1.263802,0.255005 -1.705101,0.766006c-0.441301,0.509995 -0.737801,1.410995 -0.8894,2.703003l-5.4564,-0.516006c0.213999,-1.791 0.6063,-3.190002 1.176899,-4.195007c0.570601,-1.00499 1.375301,-1.775986 2.4139,-2.312988c1.0387,-0.536011 2.4764,-0.804001 4.313,-0.804001c1.916901,0 3.408001,0.25499 4.473499,0.764999c1.065403,0.511002 1.9035,1.294998 2.514202,2.35199c0.610699,1.057007 0.9161,2.242004 0.9161,3.555008c0,1.395004 -0.350002,2.729004 -1.049801,4c-0.699898,1.270004 -1.972599,2.666 -3.818199,4.186996c-1.0966,0.886002 -1.829899,1.505005 -2.199902,1.860001c-0.369999,0.354004 -0.804699,0.817001 -1.303997,1.389999l8.5056,0l0,5.188004zm2.447399,-22.906998l15.901199,0l0,4.296997c-1.382,1.459 -2.536602,3.037003 -3.463799,4.735001c-1.123402,2.061996 -2.010502,4.358994 -2.661301,6.889999c-0.517101,1.968994 -0.864799,4.296997 -1.043201,6.985001l-5.4296,0c0.427898,-3.740005 1.101101,-6.875 2.019402,-9.406998c0.918297,-2.531006 2.371597,-5.238998 4.359798,-8.125l-9.682499,0l0,-5.375zm18.201401,11.360001c0,-4.354004 0.670898,-7.401001 2.012798,-9.141006c1.341797,-1.738998 3.385696,-2.608994 6.131798,-2.608994c1.319405,0 2.402702,0.190002 3.249702,0.569992c0.847,0.380005 1.537903,0.875 2.072899,1.484009c0.535004,0.610001 0.9562,1.25 1.263802,1.921997c0.307602,0.671997 0.555,1.455994 0.742302,2.352005c0.365494,1.707993 0.548294,3.488998 0.548294,5.343994c0,4.156006 -0.601799,7.197998 -1.805496,9.125c-1.203598,1.927002 -3.276497,2.889999 -6.218704,2.889999c-1.649399,0 -2.9823,-0.307007 -3.998695,-0.921997c-1.016304,-0.613998 -1.850002,-1.514999 -2.500801,-2.703003c-0.4725,-0.843002 -0.840302,-1.996994 -1.103298,-3.460999c-0.263103,-1.462997 -0.3946,-3.080002 -0.3946,-4.850998l0,0l0,0zm5.402996,0.014999c0,2.916992 0.220604,4.908997 0.662003,5.97699c0.441299,1.068008 1.081001,1.602005 1.919098,1.602005c0.552704,0 1.032005,-0.227005 1.437599,-0.679993c0.405701,-0.453003 0.704399,-1.169006 0.896004,-2.149002c0.191696,-0.979004 0.287598,-2.505005 0.287598,-4.578003c0,-3.041 -0.220695,-5.085999 -0.662003,-6.132996c-0.441299,-1.046005 -1.103294,-1.570007 -1.985992,-1.570007c-0.900505,0 -1.5513,0.533997 -1.952507,1.602005c-0.401199,1.067001 -0.601799,3.043991 -0.601799,5.929001l0,0zm21.023201,-7.311996c0,1.228989 -0.374397,2.280991 -1.123398,3.155991c-0.748901,0.875 -1.653801,1.313004 -2.714798,1.313004c-1.052101,0 -1.952499,-0.438004 -2.7015,-1.313004c-0.748901,-0.875 -1.123306,-1.927002 -1.123306,-3.155991c0,-1.240005 0.374405,-2.294006 1.123306,-3.164001c0.749001,-0.87001 1.649399,-1.305008 2.7015,-1.305008c1.060997,0 1.965897,0.434998 2.714798,1.305008c0.749001,0.869995 1.123398,1.923996 1.123398,3.164001l0,0zm-2.487495,-0.016006c0,-0.436996 -0.1315,-0.811996 -0.394501,-1.125c-0.263,-0.311996 -0.581703,-0.468002 -0.9562,-0.468002c-0.374504,0 -0.695404,0.156006 -0.962906,0.468002c-0.267494,0.313004 -0.401199,0.688004 -0.401199,1.125c0,0.438004 0.133705,0.809998 0.401199,1.117004c0.267502,0.307999 0.588402,0.460999 0.962906,0.460999c0.374496,0 0.693199,-0.153 0.9562,-0.460999c0.263,-0.307007 0.394501,-0.679001 0.394501,-1.117004l0,0z" id="flowRoot7503" stroke-width="1px" fill="#000000"/>
   <path d="m259.268158,57.572441a99.268951,53.642269 0 1 1 -198.537888,197.193535a99.268951,53.642269 0 1 1 198.537888,-197.193535z" id="path7945" stroke-width="0.787032px" fill-rule="evenodd" fill="url(#radialGradient9753)" opacity="0.5"/>
   <path id="path9234" d="m35.74958,198.750687c22.557869,-135.896137 175.548286,-176.816877 161.479591,-165.306107c-0.17897,43.756409 10.196945,87.029846 17.602036,130.867325c-14.490845,10.096344 -29.259964,18.662155 -39.795914,50.510208c-45.988541,-5.797195 -87.862473,-15.708954 -139.285713,-16.071426z" stroke-width="1px" fill-rule="evenodd" fill="url(#linearGradient2521)"/></g>
 </g>
</svg>